<svg id="Capa_1" data-name="Capa 1" xmlns="http://www.w3.org/2000/svg" viewBox="0 0 871.8 1115.33"><defs><style>.cls-1{fill:#57717c;}.cls-2{fill:#3a4d58;}.cls-3{fill:none;}.cls-4{fill:#8ec17d;}.cls-5{fill:#354045;}.cls-6{fill:#579c47;}.cls-7{fill:#477e3b;}</style></defs><title>dumpster-open</title><path class="cls-1" d="M1575.16,1059.87q0,14,0,28l19.67,9.75v-26.29Z" transform="translate(-1220.1 17.66)"/><path class="cls-2" d="M1594.8,1071.37v26.29l23.87-12.34c-0.67-.37-1.34-0.75-2-1.13Z" transform="translate(-1220.1 17.66)"/><path class="cls-1" d="M1273.88,883.33q0,15.9,0,31.81l19.67,9.75V894.83Z" transform="translate(-1220.1 17.66)"/><path class="cls-2" d="M1293.51,924.89l25.25-13.06v-2.21l-25.25-14.79v30.06Z" transform="translate(-1220.1 17.66)"/><path class="cls-3" d="M1649.64,753.54l0.33,0.08Z" transform="translate(-1220.1 17.66)"/><path class="cls-3" d="M1630.82,747.21l0.54,0.24Z" transform="translate(-1220.1 17.66)"/><path class="cls-3" d="M1635.49,749.16l0.67,0.26Z" transform="translate(-1220.1 17.66)"/><path class="cls-3" d="M1637.88,750.07l0.66,0.23Z" transform="translate(-1220.1 17.66)"/><path class="cls-3" d="M1642.76,751.7l0.15,0Z" transform="translate(-1220.1 17.66)"/><path class="cls-3" d="M1640.31,750.91l0.56,0.18Z" transform="translate(-1220.1 17.66)"/><path class="cls-3" d="M1633.13,748.21l0.63,0.26Z" transform="translate(-1220.1 17.66)"/><path class="cls-3" d="M1665.76,714.3l2.06,0.13Z" transform="translate(-1220.1 17.66)"/><path class="cls-3" d="M1662.68,714l1.94,0.18Z" transform="translate(-1220.1 17.66)"/><path class="cls-3" d="M1659.45,713.65l2.09,0.26Z" transform="translate(-1220.1 17.66)"/><path class="cls-3" d="M1930.53,576.31c-0.12.24-.24,0.47-0.37,0.7a21.71,21.71,0,0,1-2.33,3.36,20.41,20.41,0,0,0,2.33-3.36C1930.29,576.79,1930.41,576.55,1930.53,576.31Z" transform="translate(-1220.1 17.66)"/><path class="cls-3" d="M1725.93,700.34l158.17-92.92L1914,589.87l0.09,0,3.86-2.27,4.43-2.6a20.88,20.88,0,0,0,2-1.3q0.7-.52,1.35-1.08-0.64.56-1.35,1.08a22.5,22.5,0,0,1-2,1.3l-4.43,2.6-3.86,2.27-0.1,0L1884,607.42l-158.4,92.92a103.67,103.67,0,0,1-49,14.19h0A103.2,103.2,0,0,0,1725.93,700.34Z" transform="translate(-1220.1 17.66)"/><path class="cls-3" d="M1927.83,580.38c-0.3.35-.61,0.7-0.94,1s-0.8.79-1.23,1.17q0.64-.56,1.23-1.17C1927.22,581.08,1927.53,580.73,1927.83,580.38Z" transform="translate(-1220.1 17.66)"/><path class="cls-3" d="M1668.8,714.49c1,0,2,.08,3,0.09C1670.81,714.56,1669.8,714.53,1668.8,714.49Z" transform="translate(-1220.1 17.66)"/><polygon class="cls-3" points="26.94 540.91 118.22 594.35 33.17 544.55 26.94 540.91"/><path class="cls-3" d="M1665.13,755.92l-1.1-.09,0.49,0Z" transform="translate(-1220.1 17.66)"/><path class="cls-3" d="M1626.57,745.2h0l0,0h0Z" transform="translate(-1220.1 17.66)"/><path class="cls-3" d="M1624,743.85l-0.53-.29Z" transform="translate(-1220.1 17.66)"/><path class="cls-3" d="M1651.71,754l0.79,0.17Z" transform="translate(-1220.1 17.66)"/><path class="cls-3" d="M1231.75,472.64l-0.23-.15a25,25,0,0,1-2.68-1.93,25,25,0,0,0,2.68,1.93Z" transform="translate(-1220.1 17.66)"/><path class="cls-3" d="M1313.85,520.68L1621,700.41h0L1313.85,520.68l-81.64-47.77-0.46-.27,0.46,0.27Z" transform="translate(-1220.1 17.66)"/><path class="cls-3" d="M1656.52,754.89l1.08,0.17Z" transform="translate(-1220.1 17.66)"/><path class="cls-3" d="M1654.08,754.47l1,0.18Z" transform="translate(-1220.1 17.66)"/><path class="cls-3" d="M1667.22,756.06l1.29,0.07Z" transform="translate(-1220.1 17.66)"/><path class="cls-3" d="M1659,755.27l1.17,0.15Z" transform="translate(-1220.1 17.66)"/><path class="cls-3" d="M1661.52,755.58l1.27,0.13Z" transform="translate(-1220.1 17.66)"/><path class="cls-3" d="M1628.91,746.34l-0.19-.09Z" transform="translate(-1220.1 17.66)"/><path class="cls-3" d="M1624.94,702.57l0.85,0.44Z" transform="translate(-1220.1 17.66)"/><path class="cls-3" d="M1631.34,705.68l1.2,0.53Z" transform="translate(-1220.1 17.66)"/><path class="cls-3" d="M1655.61,713.06q1.45,0.25,2.9.46Q1657.06,713.31,1655.61,713.06Z" transform="translate(-1220.1 17.66)"/><path class="cls-3" d="M1634.11,706.86l1.25,0.5Z" transform="translate(-1220.1 17.66)"/><path class="cls-3" d="M1639.78,709l1.49,0.49Z" transform="translate(-1220.1 17.66)"/><path class="cls-3" d="M1649.69,711.85l1.63,0.37Z" transform="translate(-1220.1 17.66)"/><path class="cls-3" d="M1652.64,712.5l1.9,0.37Z" transform="translate(-1220.1 17.66)"/><path class="cls-3" d="M1636.93,708l1.3,0.48Z" transform="translate(-1220.1 17.66)"/><path class="cls-3" d="M1646.74,711.11l1.56,0.4Z" transform="translate(-1220.1 17.66)"/><path class="cls-3" d="M1643.69,710.25l1.64,0.48Z" transform="translate(-1220.1 17.66)"/><path class="cls-4" d="M1636.5,675.28l-0.9-.46Z" transform="translate(-1220.1 17.66)"/><path class="cls-4" d="M1439,338.44c0.58-.21,1.16-0.43,1.75-0.63C1440.13,338,1439.55,338.23,1439,338.44Z" transform="translate(-1220.1 17.66)"/><path class="cls-4" d="M1442.34,337.28c0.58-.19,1.16-0.39,1.74-0.57C1443.5,336.9,1442.92,337.09,1442.34,337.28Z" transform="translate(-1220.1 17.66)"/><path class="cls-4" d="M1435.64,339.72c0.58-.23,1.16-0.47,1.74-0.7C1436.8,339.24,1436.22,339.48,1435.64,339.72Z" transform="translate(-1220.1 17.66)"/><path class="cls-4" d="M1425.58,344.38c0.67-.36,1.34-0.72,2-1.06C1426.92,343.67,1426.25,344,1425.58,344.38Z" transform="translate(-1220.1 17.66)"/><path class="cls-4" d="M1445.73,336.24l1.74-.5Z" transform="translate(-1220.1 17.66)"/><path class="cls-4" d="M1429,342.65c0.6-.29,1.2-0.59,1.81-0.87C1430.22,342.06,1429.62,342.35,1429,342.65Z" transform="translate(-1220.1 17.66)"/><path class="cls-4" d="M1432.31,341.12c0.59-.26,1.18-0.53,1.77-0.78C1433.49,340.59,1432.9,340.86,1432.31,341.12Z" transform="translate(-1220.1 17.66)"/><path class="cls-4" d="M1462.92,332.76l1.78-.21Z" transform="translate(-1220.1 17.66)"/><path class="cls-4" d="M1466.41,332.41l1.77-.15Z" transform="translate(-1220.1 17.66)"/><path class="cls-4" d="M1452.56,334.5l1.75-.38Z" transform="translate(-1220.1 17.66)"/><path class="cls-4" d="M1449.12,335.32l1.76-.44Z" transform="translate(-1220.1 17.66)"/><path class="cls-4" d="M1456,333.8l1.74-.32Z" transform="translate(-1220.1 17.66)"/><path class="cls-4" d="M1469.9,332.17l1.77-.09Z" transform="translate(-1220.1 17.66)"/><path class="cls-4" d="M1421.61,346.58c0.93-.54,1.86-1.07,2.8-1.59C1423.48,345.51,1422.54,346,1421.61,346.58Z" transform="translate(-1220.1 17.66)"/><path class="cls-4" d="M1654.44,682l-1.26-.31Z" transform="translate(-1220.1 17.66)"/><path class="cls-4" d="M1659.68,683.14l-1.28-.23Z" transform="translate(-1220.1 17.66)"/><path class="cls-4" d="M1649.27,680.57l-1.23-.39Z" transform="translate(-1220.1 17.66)"/><path class="cls-4" d="M1657,682.63l-1.27-.27Z" transform="translate(-1220.1 17.66)"/><path class="cls-4" d="M1651.85,681.35l-1.25-.35Z" transform="translate(-1220.1 17.66)"/><path class="cls-4" d="M1646.69,679.7l-1.19-.42Z" transform="translate(-1220.1 17.66)"/><path class="cls-4" d="M1639.06,676.55l-1-.48Z" transform="translate(-1220.1 17.66)"/><path class="cls-4" d="M1273.94,446.71c0.07-.63.16-1.25,0.27-1.87C1274.1,445.46,1274,446.08,1273.94,446.71Z" transform="translate(-1220.1 17.66)"/><path class="cls-4" d="M1641.61,677.7l-1.11-.48Z" transform="translate(-1220.1 17.66)"/><path class="cls-4" d="M1644.13,678.74l-1.15-.45Z" transform="translate(-1220.1 17.66)"/><path class="cls-4" d="M1507.83,337.07l1.55,0.49Z" transform="translate(-1220.1 17.66)"/><path class="cls-4" d="M1473.39,332l1.78,0Z" transform="translate(-1220.1 17.66)"/><path class="cls-4" d="M1872.77,549.31a26.86,26.86,0,0,1,1.49,3.13A26.86,26.86,0,0,0,1872.77,549.31Z" transform="translate(-1220.1 17.66)"/><path class="cls-4" d="M1517.82,340.82l1.4,0.6Z" transform="translate(-1220.1 17.66)"/><path class="cls-4" d="M1874.26,552.45a27.26,27.26,0,0,1,1.07,3.27A27.26,27.26,0,0,0,1874.26,552.45Z" transform="translate(-1220.1 17.66)"/><path class="cls-4" d="M1521.16,342.34l1.27,0.6Z" transform="translate(-1220.1 17.66)"/><path class="cls-4" d="M1514.5,339.45L1516,340Z" transform="translate(-1220.1 17.66)"/><path class="cls-4" d="M1862.81,586.05l-9.2,5.41,9.2-5.41a27.36,27.36,0,0,0,7.09-6A27.36,27.36,0,0,1,1862.81,586.05Z" transform="translate(-1220.1 17.66)"/><path class="cls-4" d="M1872.77,549.31a27,27,0,0,0-10.17-10.25l-166.94-96.38,166.94,96.38A27,27,0,0,1,1872.77,549.31Z" transform="translate(-1220.1 17.66)"/><path class="cls-4" d="M1713.29,674.35q1.22-.67,2.41-1.38l19.64-11.66L1715.7,673Q1714.51,673.68,1713.29,674.35Z" transform="translate(-1220.1 17.66)"/><path class="cls-4" d="M1287.69,474q-0.86-.5-1.67-1,0.81,0.54,1.67,1L1633.2,673.49l0.34,0.19-0.34-.19Z" transform="translate(-1220.1 17.66)"/><path class="cls-4" d="M1280.39,468a27.8,27.8,0,0,0,5.63,5A27.8,27.8,0,0,1,1280.39,468Z" transform="translate(-1220.1 17.66)"/><path class="cls-4" d="M1524.61,344.06l1,0.51Z" transform="translate(-1220.1 17.66)"/><path class="cls-4" d="M1483.91,332.37l1.65,0.13Z" transform="translate(-1220.1 17.66)"/><path class="cls-4" d="M1487.37,332.7l1.64,0.19Z" transform="translate(-1220.1 17.66)"/><path class="cls-4" d="M1511.18,338.2l1.51,0.54Z" transform="translate(-1220.1 17.66)"/><path class="cls-4" d="M1477,332l1.65,0Z" transform="translate(-1220.1 17.66)"/><path class="cls-4" d="M1490.82,333.15l1.63,0.24Z" transform="translate(-1220.1 17.66)"/><path class="cls-4" d="M1480.45,332.15l1.65,0.08Z" transform="translate(-1220.1 17.66)"/><path class="cls-4" d="M1662.31,683.57l-1.29-.19Z" transform="translate(-1220.1 17.66)"/><path class="cls-4" d="M1504.46,336.06l1.58,0.45Z" transform="translate(-1220.1 17.66)"/><path class="cls-4" d="M1497.66,334.37l1.62,0.35Z" transform="translate(-1220.1 17.66)"/><path class="cls-4" d="M1501.08,335.16l1.59,0.39Z" transform="translate(-1220.1 17.66)"/><path class="cls-4" d="M1494.24,333.7l1.63,0.29Z" transform="translate(-1220.1 17.66)"/><path class="cls-4" d="M1459.46,333.23l1.76-.26Z" transform="translate(-1220.1 17.66)"/><path class="cls-4" d="M1707.3,677.31l-1.45.64Z" transform="translate(-1220.1 17.66)"/><path class="cls-4" d="M1704.74,678.41l-1.42.57Z" transform="translate(-1220.1 17.66)"/><path class="cls-4" d="M1709.88,676.11c-0.5.25-1,.5-1.52,0.73C1708.87,676.6,1709.38,676.35,1709.88,676.11Z" transform="translate(-1220.1 17.66)"/><path class="cls-4" d="M1702.16,679.41l-1.39.51Z" transform="translate(-1220.1 17.66)"/><path class="cls-4" d="M1712.51,674.76c-0.55.3-1.11,0.6-1.67,0.88C1711.4,675.36,1712,675.06,1712.51,674.76Z" transform="translate(-1220.1 17.66)"/><path class="cls-4" d="M1699.57,680.31l-1.4.46Z" transform="translate(-1220.1 17.66)"/><path class="cls-4" d="M1806.53,619.22l-9.48,5.6Z" transform="translate(-1220.1 17.66)"/><path class="cls-4" d="M1830.22,605.25l-9.46,5.58Z" transform="translate(-1220.1 17.66)"/><path class="cls-4" d="M1849,594.2l-14,8.27Z" transform="translate(-1220.1 17.66)"/><path class="cls-4" d="M1874.5,572.14q-0.17.45-.35,0.9Q1874.33,572.6,1874.5,572.14Z" transform="translate(-1220.1 17.66)"/><path class="cls-4" d="M1697,681.12l-1.4.41Z" transform="translate(-1220.1 17.66)"/><path class="cls-4" d="M1753.21,650.73l-5.36,3.17Z" transform="translate(-1220.1 17.66)"/><path class="cls-4" d="M1790.38,628.75l-5.57,3.29Z" transform="translate(-1220.1 17.66)"/><path class="cls-4" d="M1667.6,684.16l-1.3-.11Z" transform="translate(-1220.1 17.66)"/><path class="cls-4" d="M1670.26,684.32l-1.3-.06Z" transform="translate(-1220.1 17.66)"/><path class="cls-4" d="M1672.91,684.4l-1.31,0Z" transform="translate(-1220.1 17.66)"/><path class="cls-4" d="M1678.36,684.29l-1.41.07Z" transform="translate(-1220.1 17.66)"/><path class="cls-4" d="M1675.67,684.39l-1.41,0Z" transform="translate(-1220.1 17.66)"/><path class="cls-4" d="M1665,683.91l-1.3-.15Z" transform="translate(-1220.1 17.66)"/><path class="cls-4" d="M1694.35,681.84l-1.4.36Z" transform="translate(-1220.1 17.66)"/><path class="cls-4" d="M1683.73,683.83l-1.41.16Z" transform="translate(-1220.1 17.66)"/><path class="cls-4" d="M1686.39,683.47l-1.4.21Z" transform="translate(-1220.1 17.66)"/><path class="cls-4" d="M1689.06,683l-1.4.26Z" transform="translate(-1220.1 17.66)"/><path class="cls-4" d="M1681.05,684.11l-1.42.12Z" transform="translate(-1220.1 17.66)"/><path class="cls-4" d="M1691.71,682.47l-1.4.31Z" transform="translate(-1220.1 17.66)"/><path class="cls-5" d="M1785.31,767.89v73.67l65.34-42.67q-0.16-34.34-.34-68.66l-20.64,12Z" transform="translate(-1220.1 17.66)"/><polygon class="cls-2" points="565.21 785.55 544.44 771.71 544.44 845.38 565.21 859.22 565.21 785.55"/><path class="cls-1" d="M1829.67,742.19l20.64-12-20.77-13.84-65,37.66,20.77,13.84Z" transform="translate(-1220.1 17.66)"/><path class="cls-6" d="M1595.65,765.2a4.44,4.44,0,0,1-5.25,4.37l-1.93-.36a10,10,0,0,1-8.17-9.8l0-18.37-45.63-26.48V733.7a4.44,4.44,0,0,1-5.25,4.37l-1.93-.36a10,10,0,0,1-8.17-9.8l0-22.27-46.57-27V695.8a4.43,4.43,0,0,1-5.24,4.36l-1.94-.36a10,10,0,0,1-8.17-9.8V669.7l-45.76-26.56v17.33a4.44,4.44,0,0,1-5.25,4.36l-1.93-.36a10,10,0,0,1-8.17-9.8l0-20.45-47.1-27.33V627a4.44,4.44,0,0,1-5.25,4.36l-1.93-.36a10,10,0,0,1-8.17-9.8l0-23.21-47.09-27.33v18.43a4.43,4.43,0,0,1-5.25,4.36l-1.93-.35a10,10,0,0,1-8.17-9.8l0-21.56-31.73-18.41V832.48a24,24,0,0,0,7.74,7.72l0.23,0.15,0.46,0.27,81.64,47.77,297,173.75V767.91l-30.92-18V765.2Z" transform="translate(-1220.1 17.66)"/><path class="cls-6" d="M2091.83,249.62c-0.1-2-.33-4.13-0.63-6.19a63.48,63.48,0,0,0-3.65-13.62c-3.2-8.12-8-14.94-13.68-18.17l-39.32-22.22L1665-11.54c-27.39-14.2-52.66-3.29-66.16,28.41L1497.18,249.3a31.08,31.08,0,0,0-1.6,4.48c-2.45,8.74-1.9,19.65.8,29.7s7.48,19.14,13.63,24.44a87.16,87.16,0,0,0-77.6,5.3L1232.18,430.76a24.69,24.69,0,0,0-3.39,2.38,24.16,24.16,0,0,0-8.69,18.68v41.65a24.21,24.21,0,0,0,12.09,21.08l7.36,4.31h0l7.49,4.38,6.23,3.64,85,49.8L1620.76,742c0.89,0.52,1.79,1,2.69,1.51l0.53,0.29q1.28,0.69,2.57,1.34l0,0q1.06,0.54,2.14,1l0.19,0.09,0.83,0.4V705l1.6,0.72,1.2,0.53,1.58,0.66,1.25,0.5,1.57,0.6,1.3,0.48,1.54,0.55,1.49,0.49q1.21,0.39,2.42.76l1.64,0.48,1.4,0.38,1.56,0.4,1.4,0.34,1.63,0.37,1.32,0.28,1.9,0.37,1.06,0.2q1.45,0.25,2.9.46l0.94,0.12,2.09,0.26,1.14,0.12,1.94,0.18,1.14,0.09,2.06,0.13,1,0.05c1,0,2,.08,3,0.09h1.88c0.44,0,.88,0,1.32,0l1.61,0h0a103.67,103.67,0,0,0,49-14.19L1884,607.42l29.91-17.55,0.1,0,3.86-2.27,4.43-2.6a22.5,22.5,0,0,0,2-1.3q0.7-.52,1.35-1.08t1.23-1.17c0.33-.33.64-0.68,0.94-1a21.71,21.71,0,0,0,2.33-3.36c0.13-.23.25-0.47,0.37-0.7,0.25-.48.48-1,0.68-1.47a22.25,22.25,0,0,0,1.17-3.8,21.47,21.47,0,0,0,0-8.89,21,21,0,0,0-10.07-13.93l-1.83-1.07a44.91,44.91,0,0,0,20.65-2.06c0.49-.17,1-0.35,1.46-0.54s0.69-.26,1-0.42,0.86-.36,1.28-0.55c13.14-5.94,24.69-18.38,33.39-36.78l89.47-192.48L2084.32,278l0.06-.09,2.13-4.69,2.44-5.37a28.06,28.06,0,0,0,1-2.61,31.68,31.68,0,0,0,1.12-4.26c0.13-.61.23-1.24,0.32-1.87a48.57,48.57,0,0,0,.47-5.88C2091.91,252.08,2091.9,250.84,2091.83,249.62ZM1577.76,344.4l0.63-2.22a6.45,6.45,0,0,1,9.41-3.83l212,121.7a6.45,6.45,0,0,1,3.24,5.59v3.28a6.45,6.45,0,0,1-9.67,5.58l-77.51-44.75-135.15-78A6.54,6.54,0,0,1,1577.76,344.4ZM1313.85,520.68l-81.64-47.77-0.46-.27,0.46,0.27,81.64,47.77L1621,700.41Zm562.31,43.53a27.6,27.6,0,0,1-.41,3.4,27.29,27.29,0,0,1-1.25,4.54q-0.17.45-.35,0.9a26.65,26.65,0,0,1-3.15,5.64q-0.52.72-1.1,1.4a27.36,27.36,0,0,1-7.09,6l-9.2,5.41L1849,594.2l-14,8.27-4.71,2.78-9.46,5.58-14.23,8.39-9.48,5.6-6.66,3.94-5.57,3.29-31.6,18.69-5.36,3.17-12.51,7.42L1715.7,673q-1.2.71-2.41,1.38l-0.78.41c-0.55.3-1.11,0.6-1.67,0.88l-1,.47c-0.5.25-1,.5-1.52,0.73l-1.06.47-1.45.64-1.12.45-1.42.57-1.17.43-1.39.51-1.19.39-1.4.46-1.21.35-1.4.41-1.22.32-1.4.36-1.24.28-1.4.31-1.26.24-1.4.26-1.27.2-1.4.21-1.27.15-1.41.16-1.26.11-1.42.12-1.27.07-1.41.07-1.28,0-1.41,0H1674l-1.1,0-1.31,0-1.35-.06-1.3-.06-1.35-.1-1.3-.11-1.35-.15-1.3-.15-1.34-.19-1.29-.19-1.34-.24-1.28-.23-1.35-.28-1.27-.27-1.34-.33-1.26-.31-1.33-.37-1.25-.35-1.33-.42-1.23-.39-1.35-.48-1.19-.42-1.37-.54-1.15-.45-1.38-.59-1.11-.48-1.43-.67-1-.48c-0.51-.25-1-0.52-1.53-0.78l-0.9-.46c-0.69-.37-1.38-0.75-2.06-1.14l-0.34-.19L1287.69,474q-0.86-.5-1.67-1a27.8,27.8,0,0,1-5.63-5,27.26,27.26,0,0,1-3.91-6,27.77,27.77,0,0,1-1.81-5,28.25,28.25,0,0,1-.73-10.28c0.07-.63.16-1.25,0.27-1.87a27.49,27.49,0,0,1,13.17-18.9c39.9-23.72,88.39-52.35,133.9-79.16l0.34-.19c0.93-.54,1.86-1.07,2.8-1.59l1.16-.61c0.67-.36,1.34-0.72,2-1.06l1.42-.68c0.6-.29,1.2-0.59,1.81-0.87l1.49-.66c0.59-.26,1.18-0.53,1.77-0.78l1.55-.62c0.58-.23,1.16-0.47,1.74-0.7l1.59-.58c0.58-.21,1.16-0.43,1.75-0.63l1.62-.53c0.58-.19,1.16-0.39,1.74-0.57l1.65-.48,1.74-.5,1.66-.42,1.76-.44,1.68-.37,1.75-.38,1.71-.32,1.74-.32,1.7-.26,1.76-.26,1.7-.2,1.78-.21,1.71-.15,1.77-.15,1.72-.09,1.77-.09,1.72,0,1.78,0h0.24l1.58,0,1.65,0,1.81,0.08,1.65,0.08,1.81,0.14,1.65,0.13,1.81,0.2,1.64,0.19,1.81,0.26,1.63,0.24,1.79,0.32,1.63,0.29,1.79,0.38,1.62,0.35,1.8,0.44,1.59,0.39,1.79,0.5,1.58,0.45c0.6,0.18,1.2.38,1.79,0.57l1.55,0.49c0.6,0.2,1.2.42,1.8,0.64l1.51,0.54c0.61,0.23,1.21.47,1.81,0.71L1516,340c0.62,0.25,1.23.53,1.85,0.8l1.4,0.6c0.65,0.29,1.29.61,1.94,0.91l1.27,0.6c0.73,0.36,1.46.74,2.18,1.12l1,0.51q1.58,0.84,3.13,1.74l166.94,96.38,166.94,96.38a26.79,26.79,0,0,1,11.66,13.38,27.26,27.26,0,0,1,1.07,3.27A27.68,27.68,0,0,1,1876.16,564.21Zm170-292.6a55.4,55.4,0,0,1-.9,7.46l0,0.07c-0.28,1.45-.63,2.85-1,4.21a36.72,36.72,0,0,1-1.71,4.64c-27,59.14-57.18,125-82.1,179.17l-0.06.12q-0.65,1.4-1.33,2.75c-0.17.33-.34,0.64-0.51,1-0.31.6-.62,1.2-0.94,1.78-0.2.37-.41,0.72-0.62,1.08-0.29.51-.58,1-0.88,1.53s-0.46.74-.69,1.11-0.57.93-.86,1.38-0.49.72-.74,1.08-0.58.86-.87,1.27-0.52.7-.78,1-0.59.8-.89,1.18-0.54.67-.82,1-0.6.74-.9,1.09-0.56.63-.84,0.94-0.61.69-.92,1-0.58.59-.87,0.88-0.63.64-.94,0.95-0.6.55-.9,0.82-0.64.59-1,.87-0.61.51-.92,0.76-0.65.55-1,.8-0.63.47-.94,0.7-0.67.5-1,.73-0.64.42-1,.63-0.68.45-1,.66-0.65.38-1,.57-0.69.4-1,.59-0.66.34-1,.5-0.7.36-1.06,0.52l-1,.44c-0.36.15-.72,0.31-1.08,0.45l-0.2.08c-0.29.11-.59,0.2-0.88,0.31l-1,.35c-0.37.12-.73,0.22-1.1,0.32l-1,.28c-0.37.09-.74,0.17-1.11,0.25l-1,.22c-0.37.07-.75,0.12-1.13,0.18l-1.05.16c-0.38,0-.76.07-1.14,0.11l-1.07.09c-0.38,0-.77,0-1.16,0l-1.07,0c-0.39,0-.78,0-1.17,0l-1.08,0c-0.39,0-.78-0.07-1.17-0.11l-1.1-.11c-0.39-.05-0.79-0.12-1.19-0.18s-0.73-.11-1.1-0.18-0.81-.17-1.21-0.26-0.73-.15-1.09-0.24-0.83-.22-1.24-0.34-0.72-.19-1.08-0.3-0.86-.28-1.28-0.43l-1-.35c-0.44-.16-0.89-0.35-1.33-0.52l-1-.4c-0.47-.2-0.94-0.42-1.4-0.63l-0.94-.43c-0.51-.25-1-0.52-1.55-0.79l-0.81-.42q-1.18-.64-2.36-1.35l-91.69-54.61L1555.75,295.41q-0.84-.47-1.67-1a31.09,31.09,0,0,1-6.18-5.6q-0.72-.84-1.41-1.73a50.63,50.63,0,0,1-3.88-5.87c-0.8-1.4-1.56-2.87-2.27-4.39q-0.53-1.14-1-2.31a75.71,75.71,0,0,1-2.66-7.3c-0.77-2.51-1.43-5.07-2-7.67q-0.27-1.3-.49-2.6a74.08,74.08,0,0,1-1.09-13,58.8,58.8,0,0,1,.51-7.43q0.16-1.2.38-2.37a39.54,39.54,0,0,1,2.61-8.74c7.68-17.52,16-36.43,24.54-56l8.64-19.81,8.75-20.12c8.77-20.23,17.61-40.68,26.21-60.63q0.78-1.82,1.61-3.57c0.18-.38.37-0.74,0.55-1.12,0.38-.77.75-1.55,1.14-2.3,0.24-.46.48-0.89,0.72-1.34,0.35-.65.69-1.3,1-1.93s0.56-.94.83-1.41,0.67-1.15,1-1.71,0.6-.93.9-1.39,0.67-1.06,1-1.57,0.62-.88.93-1.32,0.7-1,1.06-1.5,0.64-.83,1-1.25,0.72-1,1.09-1.41,0.67-.79,1-1.19,0.74-.88,1.12-1.31,0.7-.75,1.05-1.12,0.76-.82,1.14-1.21,0.73-.71,1.09-1.06,0.77-.76,1.17-1.12,0.75-.66,1.13-1,0.79-.7,1.19-1,0.77-.61,1.15-0.91,0.81-.65,1.23-1,0.78-.55,1.18-0.83,0.84-.6,1.26-0.87,0.81-.5,1.21-0.75,0.85-.54,1.28-0.79,0.83-.45,1.24-0.68,0.87-.48,1.31-0.7,0.84-.4,1.26-0.59,0.89-.42,1.34-0.62l0.17-.08c0.39-.17.79-0.31,1.19-0.46s0.84-.34,1.27-0.49,0.92-.31,1.39-0.46,0.86-.29,1.29-0.42,0.94-.25,1.41-0.37,0.87-.24,1.31-0.34,1-.19,1.44-0.29,0.88-.18,1.32-0.26,1-.14,1.46-0.2,0.89-.13,1.35-0.18,1-.08,1.47-0.11,0.91-.08,1.37-0.1,1,0,1.5,0,0.92,0,1.38,0,1,0,1.52.06,0.93,0,1.39.06,1,0.1,1.53.15,0.94,0.08,1.41.15,1,0.16,1.57.25,0.94,0.14,1.41.23,1.08,0.23,1.62.35,0.92,0.19,1.39.3,1.1,0.29,1.65.44,0.92,0.24,1.38.37,1.12,0.36,1.69.55,0.91,0.28,1.37.45,1.2,0.46,1.81.69c0.42,0.16.84,0.31,1.26,0.48,0.66,0.27,1.33.57,2,.87l1.1,0.48q1.47,0.68,3,1.45l0.15,0.07,337.74,182.3a28.32,28.32,0,0,1,6.43,5q1,1,2,2.18,0.55,0.65,1.08,1.34c0.94,1.23,1.85,2.53,2.71,3.91s1.68,2.82,2.45,4.32,1.5,3.06,2.18,4.67a79.54,79.54,0,0,1,4.11,12.72c0.39,1.65.72,3.31,1,5,0.17,1,.33,2,0.46,3A72.13,72.13,0,0,1,2046.19,271.61Z" transform="translate(-1220.1 17.66)"/><path class="cls-6" d="M1772,158.36c-29.57-16-66.24-35.65-97.14-51.75-4.71-2.44-9.38-2.82-13.5-1.1s-7.71,5.62-10.18,11.19l-49.61,110.66c-3.08,6.8.33,19.27,6.13,22.36,23.53,12.61,55.39,30.13,95,52.37,4.49,2.53,9,3,13,1.44s7.45-5.27,9.91-10.61l30.46-66.7,21.51-47.59C1780.33,172.47,1777.22,161.22,1772,158.36Z" transform="translate(-1220.1 17.66)"/><path class="cls-6" d="M1970.18,268.92c-29.87-16.85-66.9-37.53-98.1-54.53-4.76-2.58-9.5-3.06-13.71-1.37s-7.9,5.62-10.47,11.29L1796.15,337c-3.22,6.94.09,19.81,5.95,23.08,23.75,13.33,55.91,31.82,95.92,55.22,4.54,2.66,9.1,3.24,13.19,1.65s7.64-5.31,10.2-10.76l31.79-68,22.44-48.46C1978.53,283.49,1975.49,271.93,1970.18,268.92Z" transform="translate(-1220.1 17.66)"/><path class="cls-6" d="M2022.67,239.82L1685.39,56.63c-13.78-7.19-27.39-8.3-39.37-3.24-12.18,5.15-22.32,16.5-29.36,32.81-27.42,63.08-50.49,115.79-68.45,156.7-2.72,6.17-1.12,13.75-.31,16.72s3.26,10.21,8.46,13.08l340.76,196.15c9.91,5.91,19.9,7.22,28.91,3.78,9.24-3.54,17.14-12,22.85-24.34,21.38-46.62,48.94-106.85,81.71-178.94,2.74-6.06,1.19-13.58.4-16.54S2027.8,242.69,2022.67,239.82ZM1721.9,327.46c-6.07,2.4-12.92,1.72-19.94-2.26-36.07-20.39-78.87-44.18-107.84-59.59-10.53-5.57-16.75-28.23-11.14-40.6q28.35-62.88,56.33-126c3.77-8.54,9.08-14.26,15.3-16.87s13.11-2.12,20.36,1.61c37.3,19.32,83,43.76,113.84,60.45,8.65,4.71,13.78,23.17,9.23,33.27q-30.23,66.88-60.9,133.67C1733.29,319.54,1728,325.05,1721.9,327.46Zm274.56-38.56q-31.54,68.09-63.55,136.23c-4,8.53-9.48,14.12-15.7,16.52s-13.16,1.61-20.24-2.58c-36.4-21.45-79.59-46.53-108.84-62.84-10.63-5.91-16.66-29.31-10.81-41.92q29.58-64.1,58.76-128.29c3.93-8.69,9.4-14.45,15.74-17s13.34-1.94,20.67,2c37.67,20.42,83.86,46.17,115,63.7C1996.21,259.66,2001.2,278.63,1996.46,288.91Z" transform="translate(-1220.1 17.66)"/><path class="cls-7" d="M1930.53,576.31c-0.12.24-.24,0.47-0.37,0.7a20.41,20.41,0,0,1-2.33,3.36c-0.3.35-.61,0.7-0.94,1s-0.8.79-1.23,1.17-0.88.74-1.35,1.08a20.88,20.88,0,0,1-2,1.3l-4.43,2.6-3.86,2.27-0.09,0-29.87,17.55-158.17,92.92a103.2,103.2,0,0,1-49.27,14.19h0l-1.61,0c-0.44,0-.88,0-1.32,0h-1.88c-1,0-2,0-3-.09l-1-.05-2.06-.13-1.14-.09-1.94-.18-1.14-.12-2.09-.26-0.94-.12q-1.45-.21-2.9-0.46l-1.06-.2-1.9-.37-1.32-.28-1.63-.37-1.4-.34-1.56-.4-1.4-.38-1.64-.48q-1.21-.36-2.42-0.76l-1.49-.49-1.54-.55-1.3-.48-1.57-.6-1.25-.5-1.58-.66-1.2-.53-1.6-.72v41.77l-0.83-.4-0.19-.09q-1.07-.51-2.14-1h0q-1.29-.65-2.57-1.34l-0.53-.29c-0.9-.49-1.8-1-2.69-1.51L1338.32,576.68,1247,523.24l-7.49-4.38V543.3l31.73,18.41,0,21.56a10,10,0,0,0,8.17,9.8l1.93,0.35a4.43,4.43,0,0,0,5.25-4.36V570.63L1333.74,598l0,23.21a10,10,0,0,0,8.17,9.8l1.93,0.36a4.44,4.44,0,0,0,5.25-4.36V606.89l47.1,27.33,0,20.45a10,10,0,0,0,8.17,9.8l1.93,0.36a4.44,4.44,0,0,0,5.25-4.36V643.14l45.76,26.56V690a10,10,0,0,0,8.17,9.8l1.94,0.36a4.43,4.43,0,0,0,5.24-4.36V678.61l46.57,27,0,22.27a10,10,0,0,0,8.17,9.8l1.93,0.36a4.44,4.44,0,0,0,5.25-4.37V714.56L1580.28,741l0,18.37a10,10,0,0,0,8.17,9.8l1.93,0.36a4.44,4.44,0,0,0,5.25-4.37V750l30.92,18v294.23l-297-173.75L1248,840.62l-0.46-.27-0.23-.15a24,24,0,0,1-7.74-7.72v17.39a22.81,22.81,0,0,0,10.76,19.48,6.88,6.88,0,0,0,.64.4l233.94,137.08,132,77.36a97.39,97.39,0,0,0,98.61-.07l136.05-80,44.77-26.32,4.17-2.45a20,20,0,0,0,9.9-17v-325L1725.62,742a103.31,103.31,0,0,1-50.85,14.25A103.52,103.52,0,0,0,1725.46,742l161.44-94.83,35-20.54a21.1,21.1,0,0,0,10.52-18.37V571a20.62,20.62,0,0,1-1.18,3.8C1931,575.34,1930.77,575.83,1930.53,576.31ZM1764.54,754l65-37.66,20.77,13.84q0.16,34.34.34,68.66l-65.34,42.67-20.77-13.84V754Zm-100,1.83-0.49,0,1.1,0.09Z" transform="translate(-1220.1 17.66)"/><path class="cls-7" d="M1274.67,457a27.77,27.77,0,0,0,1.81,5,27.26,27.26,0,0,0,3.91,6,27.8,27.8,0,0,0,5.63,5q0.81,0.54,1.67,1L1633.2,673.49l0.34,0.19c0.68,0.39,1.37.78,2.06,1.14l0.9,0.46c0.51,0.26,1,.53,1.53.78l1,0.48,1.43,0.67,1.11,0.48,1.38,0.59,1.15,0.45,1.37,0.54,1.19,0.42,1.35,0.48,1.23,0.39,1.33,0.42,1.25,0.35,1.33,0.37,1.26,0.31,1.34,0.33,1.27,0.27,1.35,0.28,1.28,0.23,1.34,0.24,1.29,0.19,1.34,0.19,1.3,0.15,1.35,0.15,1.3,0.11,1.35,0.1,1.3,0.06,1.35,0.06,1.31,0,1.1,0h0.25l1.41,0,1.28,0,1.41-.07,1.27-.07,1.42-.12,1.26-.11,1.41-.16,1.27-.15,1.4-.21,1.27-.2,1.4-.26,1.26-.24,1.4-.31,1.24-.28,1.4-.36,1.22-.32,1.4-.41,1.21-.35,1.4-.46,1.19-.39,1.39-.51,1.17-.43,1.42-.57,1.12-.45,1.45-.64,1.06-.47c0.51-.24,1-0.49,1.52-0.73l1-.47c0.56-.28,1.11-0.58,1.67-0.88l0.78-.41q1.22-.67,2.41-1.38l19.64-11.66,12.51-7.42,5.36-3.17,31.6-18.69,5.57-3.29,6.66-3.94,9.48-5.6,14.23-8.39,9.46-5.58,4.71-2.78,14-8.27,4.64-2.73,9.2-5.41a27.36,27.36,0,0,0,7.09-6q0.58-.69,1.1-1.4a26.65,26.65,0,0,0,3.15-5.64q0.18-.45.35-0.9a27.29,27.29,0,0,0,1.25-4.54,27.69,27.69,0,0,0-.42-11.89,27.26,27.26,0,0,0-1.07-3.27,26.79,26.79,0,0,0-11.66-13.38l-166.94-96.38L1528.73,346.3q-1.55-.9-3.13-1.74l-1-.51c-0.73-.38-1.45-0.76-2.18-1.12l-1.27-.6c-0.65-.31-1.29-0.62-1.94-0.91l-1.4-.6c-0.62-.27-1.23-0.54-1.85-0.8l-1.47-.58c-0.6-.24-1.2-0.48-1.81-0.71l-1.51-.54c-0.6-.21-1.2-0.44-1.8-0.64l-1.55-.49c-0.6-.19-1.19-0.39-1.79-0.57l-1.58-.45-1.79-.5-1.59-.39-1.8-.44-1.62-.35-1.79-.38-1.63-.29-1.79-.32-1.63-.24-1.81-.26-1.64-.19-1.81-.2-1.65-.13-1.81-.14-1.65-.08-1.81-.08-1.65,0-1.58,0h-0.24l-1.78,0-1.72,0-1.77.09-1.72.09-1.77.15-1.71.15-1.78.21-1.7.2-1.76.26-1.7.26-1.74.32-1.71.32-1.75.38-1.68.37-1.76.44-1.66.42-1.74.5-1.65.48c-0.58.18-1.16,0.38-1.74,0.57l-1.62.53c-0.58.2-1.16,0.42-1.75,0.63l-1.59.58c-0.58.22-1.16,0.46-1.74,0.7l-1.55.62c-0.59.25-1.18,0.52-1.77,0.78l-1.49.66c-0.61.28-1.2,0.58-1.81,0.87l-1.42.68c-0.68.34-1.35,0.7-2,1.06l-1.16.61c-0.94.51-1.87,1-2.8,1.59l-0.34.19c-45.51,26.81-94,55.44-133.9,79.16a27.49,27.49,0,0,0-13.17,18.9c-0.11.62-.2,1.24-0.27,1.87A28.25,28.25,0,0,0,1274.67,457Z" transform="translate(-1220.1 17.66)"/><path class="cls-7" d="M2045.64,258.4c-0.13-1-.29-2-0.46-3-0.28-1.67-.61-3.33-1-5a79.54,79.54,0,0,0-4.11-12.72c-0.68-1.61-1.41-3.17-2.18-4.67s-1.59-2.95-2.45-4.32-1.77-2.68-2.71-3.91q-0.53-.69-1.08-1.34a30.54,30.54,0,0,0-8.39-7.21L1685.52,33.91l-0.15-.07q-1.48-.77-3-1.45l-1.1-.48c-0.67-.3-1.33-0.6-2-0.87-0.42-.17-0.84-0.32-1.26-0.48-0.6-.23-1.21-0.48-1.81-0.69s-0.91-.3-1.37-0.45-1.13-.38-1.69-0.55-0.92-.25-1.38-0.37-1.1-.31-1.65-0.44-0.92-.2-1.39-0.3-1.08-.25-1.62-0.35-0.94-.15-1.41-0.23-1-.18-1.57-0.25-0.94-.1-1.41-0.15-1-.12-1.53-0.15-0.93,0-1.39-.06-1-.06-1.52-0.06-0.92,0-1.38,0-1,0-1.5,0-0.91.06-1.37,0.1-1,.06-1.47.11-0.9.12-1.35,0.18-1,.12-1.46.2-0.88.17-1.32,0.26-1,.18-1.44.29-0.87.22-1.31,0.34-0.94.24-1.41,0.37-0.86.28-1.29,0.42-0.93.29-1.39,0.46-0.84.33-1.27,0.49-0.79.3-1.19,0.46l-0.17.08c-0.45.19-.89,0.41-1.34,0.62s-0.85.38-1.26,0.59-0.87.46-1.31,0.7-0.83.44-1.24,0.68-0.86.52-1.28,0.79-0.81.49-1.21,0.75-0.84.58-1.26,0.88-0.79.54-1.18,0.83-0.82.64-1.23,1-0.77.59-1.15,0.91-0.8.69-1.19,1-0.76.65-1.13,1-0.78.75-1.17,1.12-0.73.7-1.09,1.06-0.76.81-1.14,1.21-0.71.74-1.05,1.12-0.75.87-1.12,1.31-0.68.78-1,1.19-0.73.94-1.09,1.41-0.65.82-1,1.25-0.71,1-1.06,1.5-0.63.87-.93,1.32-0.68,1-1,1.57-0.6.92-.9,1.39-0.67,1.14-1,1.71-0.56.93-.83,1.41-0.7,1.28-1,1.93c-0.24.45-.49,0.88-0.72,1.34-0.39.75-.76,1.53-1.14,2.3-0.18.38-.37,0.74-0.55,1.12q-0.83,1.75-1.61,3.57c-8.6,20-17.44,40.4-26.21,60.63l-8.75,20.12-8.64,19.81c-8.58,19.6-16.86,38.51-24.54,56a39.54,39.54,0,0,0-2.61,8.74q-0.22,1.17-.38,2.37a58.8,58.8,0,0,0-.51,7.43,74.08,74.08,0,0,0,1.09,13q0.22,1.3.49,2.6c0.53,2.59,1.19,5.16,2,7.67a75.71,75.71,0,0,0,2.66,7.3q0.5,1.17,1,2.31c0.71,1.52,1.47,3,2.27,4.39a50.63,50.63,0,0,0,3.88,5.87q0.69,0.9,1.41,1.73a31.09,31.09,0,0,0,6.18,5.6q0.82,0.55,1.67,1l248.54,142.67L1896,492.68q1.18,0.71,2.36,1.35l0.81,0.42c0.52,0.27,1,.54,1.55.79l0.94,0.43c0.47,0.21.94,0.44,1.4,0.63l1,0.4c0.44,0.18.89,0.36,1.33,0.52l1,0.35c0.43,0.14.86,0.3,1.28,0.43s0.72,0.2,1.08.3,0.83,0.24,1.24.34,0.73,0.16,1.09.24,0.81,0.18,1.21.26,0.73,0.12,1.1.18,0.79,0.13,1.19.18l1.1,0.11c0.39,0,.78.08,1.17,0.11l1.08,0c0.39,0,.78,0,1.17,0l1.07,0c0.39,0,.77,0,1.16,0l1.07-.09c0.38,0,.76-0.06,1.14-0.11l1.05-.16c0.38-.06.75-0.11,1.13-0.18l1-.22c0.37-.08.75-0.16,1.11-0.25l1-.28c0.37-.1.74-0.2,1.1-0.32l1-.35c0.29-.1.59-0.19,0.88-0.31l0.2-.08c0.36-.14.72-0.3,1.08-0.45l1-.44c0.36-.16.71-0.34,1.06-0.52s0.67-.33,1-0.5,0.7-.39,1-0.59,0.65-.37,1-0.57,0.68-.44,1-0.66,0.64-.41,1-0.63,0.67-.49,1-0.73,0.63-.45.94-0.7,0.66-.53,1-0.8,0.61-.5.92-0.76,0.64-.58,1-0.87,0.6-.54.9-0.82,0.63-.63.94-0.95,0.58-.58.87-0.88,0.62-.68.92-1,0.56-.62.84-0.94,0.6-.73.9-1.09,0.55-.66.82-1,0.59-.78.89-1.18,0.52-.69.78-1,0.58-.85.87-1.27,0.5-.71.74-1.08,0.58-.92.86-1.38,0.47-.73.69-1.11,0.59-1,.88-1.53c0.21-.36.42-0.71,0.62-1.08,0.32-.58.63-1.18,0.94-1.78,0.17-.32.34-0.64,0.51-1q0.68-1.34,1.33-2.75l0.06-.12c24.93-54.22,55.15-120,82.1-179.17a36.72,36.72,0,0,0,1.71-4.64c0.41-1.36.76-2.76,1-4.21l0-.07a55.4,55.4,0,0,0,.9-7.46A72.13,72.13,0,0,0,2045.64,258.4Zm-15,11c-32.78,72.09-60.34,132.32-81.71,178.94-5.7,12.39-13.61,20.8-22.85,24.34-9,3.45-19,2.13-28.91-3.78L1556.36,272.72c-5.2-2.87-7.65-10.1-8.46-13.08s-2.41-10.55.31-16.72c18-40.91,41-93.62,68.45-156.7,7-16.32,17.18-27.66,29.36-32.81,12-5.06,25.59-4,39.37,3.24l337.29,183.18c5.12,2.87,7.52,10.05,8.32,13S2033.33,263.31,2030.59,269.36Z" transform="translate(-1220.1 17.66)"/><path class="cls-7" d="M1788.8,144.25C1758,127.56,1712.27,103.12,1675,83.8c-7.25-3.73-14.24-4.18-20.36-1.61s-11.53,8.32-15.3,16.87q-28,63.07-56.33,126c-5.6,12.36.61,35,11.14,40.6,29,15.42,71.78,39.2,107.84,59.59,7,4,13.87,4.66,19.94,2.26s11.39-7.92,15.24-16.27q30.66-66.78,60.9-133.67C1802.58,167.42,1797.45,149,1788.8,144.25Zm-11.24,34.38-21.51,47.59-30.46,66.7c-2.45,5.34-5.88,9-9.91,10.61s-8.5,1.1-13-1.44c-39.64-22.24-71.51-39.76-95-52.37-5.8-3.09-9.21-15.56-6.13-22.36l49.61-110.66c2.47-5.57,6-9.44,10.18-11.19s8.79-1.34,13.5,1.1c30.9,16.1,67.56,35.72,97.14,51.75C1777.22,161.22,1780.33,172.47,1777.57,178.63Z" transform="translate(-1220.1 17.66)"/><path class="cls-7" d="M1987.47,254.72c-31.12-17.54-77.3-43.28-115-63.7-7.32-4-14.42-4.53-20.67-2s-11.81,8.32-15.74,17q-29.18,64.18-58.76,128.29c-5.85,12.61.18,36,10.81,41.92,29.25,16.31,72.44,41.39,108.84,62.84,7.08,4.19,14,5,20.24,2.58s11.68-8,15.7-16.52q32-68.13,63.55-136.23C2001.2,278.63,1996.21,259.66,1987.47,254.72Zm-11.83,35-22.44,48.46-31.79,68c-2.56,5.45-6.09,9.17-10.2,10.76s-8.66,1-13.19-1.65c-40-23.4-72.17-41.89-95.92-55.22-5.85-3.28-9.16-16.14-5.95-23.08l51.75-112.72c2.57-5.67,6.2-9.57,10.47-11.29s8.95-1.22,13.71,1.37c31.21,17,68.24,37.68,98.1,54.53C1975.49,271.93,1978.53,283.49,1975.64,289.76Z" transform="translate(-1220.1 17.66)"/><path class="cls-3" d="M1580.74,351.75l135.15,78,77.51,44.75a6.45,6.45,0,0,0,9.67-5.58v-3.28a6.45,6.45,0,0,0-3.24-5.59l-212-121.7a6.45,6.45,0,0,0-9.41,3.83l-0.63,2.22A6.54,6.54,0,0,0,1580.74,351.75Z" transform="translate(-1220.1 17.66)"/><rect class="cls-7" x="1431.04" y="357.87" width="1" height="462.58" transform="translate(-1018.68 1546.61) rotate(-59.75)"/></svg>