<svg id="Capa_1" data-name="Capa 1" xmlns="http://www.w3.org/2000/svg" viewBox="0 0 712.75 796.44"><defs><style>.cls-1{fill:none;}.cls-2{fill:#57717c;}.cls-3{fill:#3a4d58;}.cls-4{fill:#579c47;}.cls-5{fill:#8ec17d;}.cls-6{fill:#477e3b;}.cls-7{fill:#354045;}</style></defs><title>dumpster-closed</title><polygon class="cls-1" points="26.94 222.02 118.22 275.46 33.17 225.66 26.94 222.02"/><path class="cls-1" d="M881.43,428.11l-3.86,2.27-0.1,0L847.56,448l-158.4,92.92a103.66,103.66,0,0,1-49,14.19,103.19,103.19,0,0,0,49.26-14.19L847.63,448l29.87-17.55,0.09,0,3.86-2.27,4.43-2.6a20.82,20.82,0,0,0,2-1.3,22.53,22.53,0,0,1-2,1.3Z" transform="translate(-183.63 -141.78)"/><path class="cls-1" d="M590.1,585.75h0l0,0h0Z" transform="translate(-183.63 -141.78)"/><path class="cls-1" d="M893.69,417.57a21.69,21.69,0,0,1-2.32,3.35A20.41,20.41,0,0,0,893.69,417.57Z" transform="translate(-183.63 -141.78)"/><path class="cls-1" d="M628,596.43l0.6,0-1.1-.09Z" transform="translate(-183.63 -141.78)"/><path class="cls-2" d="M538.94,900.43q0,14,0,28l19.67,9.75V911.93Z" transform="translate(-183.63 -141.78)"/><path class="cls-3" d="M558.57,911.93v26.29l23.87-12.34c-0.67-.37-1.34-0.75-2-1.13Z" transform="translate(-183.63 -141.78)"/><path class="cls-2" d="M237.66,723.88q0,15.9,0,31.81l19.67,9.75V735.39Z" transform="translate(-183.63 -141.78)"/><path class="cls-3" d="M257.29,765.44l25.25-13.06v-2.21l-25.25-14.79v30.06Z" transform="translate(-183.63 -141.78)"/><path class="cls-4" d="M210.82,680.75L211,680.9l0.46,0.27,81.64,47.77,297,173.75V608.46l-30.92-18v15.24a4.44,4.44,0,0,1-5.25,4.37l-1.93-.36a10,10,0,0,1-8.17-9.8l0-18.37-45.63-26.48v19.14a4.44,4.44,0,0,1-5.25,4.37l-1.93-.36a10,10,0,0,1-8.17-9.8l0-22.27-46.57-27v17.19a4.43,4.43,0,0,1-5.24,4.36l-1.94-.36a10,10,0,0,1-8.17-9.8v-20.3l-45.76-26.56V501a4.44,4.44,0,0,1-5.25,4.36l-1.93-.36a10,10,0,0,1-8.17-9.8l0-20.45-47.1-27.33v20.08a4.44,4.44,0,0,1-5.25,4.36l-1.93-.36a10,10,0,0,1-8.17-9.8l0-23.21-47.09-27.33v18.43a4.43,4.43,0,0,1-5.25,4.36l-1.93-.35a10,10,0,0,1-8.17-9.8l0-21.56-31.73-18.41V673A24,24,0,0,0,210.82,680.75Z" transform="translate(-183.63 -141.78)"/><path class="cls-5" d="M195,313l0.23,0.15,0.46,0.27,81.64,47.77L584.55,541h0c1.29,0.76,2.6,1.47,3.92,2.17l0.84,0.44c1.31,0.68,2.62,1.33,4,1.95l1.6,0.72,1.19,0.52,1.59,0.66,1.24,0.5,1.57,0.61,1.3,0.47,1.55,0.55,1.47,0.48q1.23,0.4,2.46.77l1.62,0.48,1.41,0.38,1.55,0.4,1.4,0.34,1.62,0.37,1.33,0.28,1.89,0.36,1.07,0.2q1.45,0.25,2.9.46L623,554.2l2.08,0.26,1.15,0.12,1.93,0.18,1.15,0.09,2,0.13,1,0.05c1,0,2,.08,3,0.09h1.9c0.44,0,.88,0,1.32,0l1.65,0h0a103.66,103.66,0,0,0,49-14.19L847.56,448l29.91-17.55,0.1,0,3.86-2.27,4.43-2.6a22.53,22.53,0,0,0,2-1.3h0a20.14,20.14,0,0,0,2-1.68c0.2-.19.41-0.37,0.6-0.57s0.33-.36.49-0.54l0.45-.49h0a21.69,21.69,0,0,0,2.32-3.35l0.18-.34a19.11,19.11,0,0,0,.87-1.83h0a22.22,22.22,0,0,0,1.17-3.8,21.47,21.47,0,0,0,0-8.89,21,21,0,0,0-10.07-13.93l-38.28-22.4L484,153.7a87.15,87.15,0,0,0-88.11.06L195.71,271.31a24.69,24.69,0,0,0-3.39,2.38A24.42,24.42,0,0,0,195,313Zm42.43-25.92c0.08-.68.19-1.36,0.32-2a27.73,27.73,0,0,1,2.84-8,27.22,27.22,0,0,1,3-4.48q0.59-.7,1.23-1.37a28.25,28.25,0,0,1,6-4.75c10-5.93,20.49-12.17,31.35-18.61,13.58-8,27.73-16.41,42.07-24.89l17.29-10.21L359,202.56l17.27-10.18,8.56-5q1.56-.92,3.14-1.78l1-.52c0.73-.39,1.45-0.77,2.18-1.14l1.25-.6c0.66-.32,1.31-0.64,2-0.95l1.42-.63c0.61-.27,1.22-0.55,1.84-0.81l1.5-.6c0.6-.24,1.19-0.49,1.8-0.72l1.54-.56c0.6-.22,1.19-0.44,1.79-0.65l1.56-.51c0.6-.2,1.2-0.4,1.8-0.58l1.6-.46,1.79-.52,1.63-.42,1.78-.45,1.65-.36,1.78-.39,1.66-.31,1.79-.33,1.67-.25,1.79-.27,1.68-.2,1.8-.21,1.68-.15,1.8-.15,1.68-.09,1.81-.09,1.69,0,1.8,0h0.23l1.55,0,1.68,0L444,172.7l1.67,0.08,1.79,0.14,1.66,0.13,1.8,0.2,1.65,0.19,1.79,0.26,1.65,0.24,1.78,0.31,1.65,0.3,1.78,0.38,1.63,0.35,1.75,0.43,1.64,0.41,1.74,0.49,1.62,0.46,1.74,0.55,1.6,0.51c0.58,0.2,1.17.41,1.75,0.62l1.56,0.56c0.59,0.22,1.18.46,1.77,0.69l1.51,0.59c0.6,0.25,1.2.51,1.79,0.77l1.45,0.63c0.62,0.28,1.23.58,1.85,0.87L486,183.5c0.67,0.33,1.34.68,2,1l1.17,0.6c0.9,0.48,1.79,1,2.68,1.49l0.45,0.25L826.13,379.62a27.46,27.46,0,0,1,6.55,5.23,25.42,25.42,0,0,1,3.28,4.45q0.32,0.54.61,1.09a26.93,26.93,0,0,1,1.22,2.61,27.26,27.26,0,0,1,1.07,3.27,27.61,27.61,0,0,1,.81,5.07q0.06,0.85.06,1.71t0,1.71a27.5,27.5,0,0,1-1.24,6.73,27,27,0,0,1-1.25,3.22,26.71,26.71,0,0,1-1.67,3.06,27,27,0,0,1-9.19,8.83l-4.58,2.7L798.46,443l-4.71,2.78-9.46,5.58C766.92,461.62,749.41,472,732.4,482l-9.23,5.46-4.57,2.71-17.94,10.63L691.93,506l-12.7,7.54q-1.2.71-2.41,1.38l-0.78.41c-0.55.3-1.11,0.6-1.67,0.88l-1,.47c-0.5.25-1,.5-1.51,0.73l-1.09.49-1.41.63-1.16.47-1.37.55-1.19.44-1.37.5-1.22.4-1.36.45-1.24.36-1.36.4-1.26.32-1.36.35-1.28.28-1.36.3-1.28.24-1.37.25-1.29.2-1.37.21-1.3.16-1.37.16-1.3.12-1.38.11-1.31.07-1.38.07-1.32,0-1.37,0h-0.26l-1.13,0-1.27,0-1.39-.06-1.26-.06-1.39-.1-1.26-.1-1.38-.15-1.26-.14-1.38-.2-1.26-.18-1.37-.24-1.25-.23-1.37-.29-1.25-.27-1.36-.33-1.24-.31-1.36-.38-1.22-.35-1.36-.43-1.2-.38-1.37-.48-1.17-.41-1.4-.55-1.11-.44-1.42-.61-1.07-.46-1.47-.69-1-.47c-0.53-.26-1.06-0.54-1.59-0.82l-0.84-.43q-1.21-.64-2.4-1.33l-92.58-53.45-252.93-146q-0.86-.5-1.67-1a27.8,27.8,0,0,1-5.63-5q-0.6-.7-1.14-1.42a27.23,27.23,0,0,1-2-3q-0.44-.78-0.82-1.58a27.65,27.65,0,0,1-1.31-3.28A28.33,28.33,0,0,1,237.48,287.12Z" transform="translate(-183.63 -141.78)"/><path class="cls-4" d="M216.8,367.44l85,49.8L584.29,582.6c0.89,0.52,1.79,1,2.69,1.51l0.53,0.29q1.28,0.69,2.57,1.34l0,0q1.06,0.53,2.14,1l0.19,0.09,0.83,0.39V545.52c-1.33-.62-2.64-1.27-4-1.95l-0.84-.44c-1.32-.69-2.63-1.41-3.92-2.17h0L277.38,361.23l-81.64-47.77-0.46-.27L195,313a24.19,24.19,0,0,1-11.42-20.67V334a24.21,24.21,0,0,0,12.09,21.08l7.36,4.31h0l7.49,4.38Z" transform="translate(-183.63 -141.78)"/><path class="cls-6" d="M894.74,415.4a19.11,19.11,0,0,1-.87,1.83l-0.18.34a20.41,20.41,0,0,1-2.32,3.35h0l-0.45.49c-0.16.18-.32,0.37-0.49,0.54s-0.4.38-.6,0.57a20.14,20.14,0,0,1-2,1.68h0a20.82,20.82,0,0,1-2,1.3l-4.43,2.6-3.86,2.27-0.09,0L847.63,448,689.46,540.89a103.19,103.19,0,0,1-49.26,14.19h0l-1.65,0c-0.44,0-.88,0-1.32,0h-1.9c-1,0-2,0-3-.09l-1-.05-2-.13-1.15-.09-1.93-.18-1.15-.12L623,554.2l-0.95-.13q-1.45-.21-2.9-0.46l-1.07-.2-1.89-.36-1.33-.28-1.62-.37-1.4-.34-1.55-.4-1.41-.38-1.62-.48q-1.23-.37-2.46-0.77l-1.47-.48-1.55-.55-1.3-.47-1.57-.61-1.24-.5-1.59-.66-1.19-.52-1.6-.72v41.77l-0.83-.39-0.19-.09q-1.07-.51-2.14-1h0q-1.29-.65-2.57-1.34l-0.53-.29c-0.9-.49-1.8-1-2.69-1.51L301.85,417.24,210.57,363.8l-7.49-4.38v24.44l31.73,18.41,0,21.56a10,10,0,0,0,8.17,9.8l1.93,0.35a4.43,4.43,0,0,0,5.25-4.36V411.18l47.09,27.33,0,23.21a10,10,0,0,0,8.17,9.8l1.93,0.36a4.44,4.44,0,0,0,5.25-4.36V447.44l47.1,27.33,0,20.45a10,10,0,0,0,8.17,9.8l1.93,0.36a4.44,4.44,0,0,0,5.25-4.36V483.69l45.76,26.56v20.3a10,10,0,0,0,8.17,9.8l1.94,0.36a4.43,4.43,0,0,0,5.24-4.36V519.16l46.57,27,0,22.27a10,10,0,0,0,8.17,9.8l1.93,0.36a4.44,4.44,0,0,0,5.25-4.37V555.11l45.63,26.48,0,18.37a10,10,0,0,0,8.17,9.8l1.93,0.36a4.44,4.44,0,0,0,5.25-4.37V590.51l30.92,18V902.69l-297-173.75-81.64-47.77L211,680.9l-0.23-.15a24,24,0,0,1-7.74-7.72v17.39a22.81,22.81,0,0,0,10.76,19.48,6.88,6.88,0,0,0,.64.4l23.18,13.58,19.63,11.5,25.25,14.79,165.89,97.2,90.52,53,19.63,11.51,21.87,12.81c0.66,0.39,1.33.76,2,1.13q3.76,2.09,7.66,3.83a97.41,97.41,0,0,0,88.95-5l136.05-80,44.77-26.32,4.17-2.45a20,20,0,0,0,9.9-17v-325L689.15,582.52a103.31,103.31,0,0,1-50.85,14.25A103.52,103.52,0,0,0,689,582.52l161.44-94.83,35-20.54a21.1,21.1,0,0,0,10.52-18.37V411.6a20.6,20.6,0,0,1-1.18,3.8h0ZM628,596.43l-0.49,0,1.1,0.09Zm100-1.83,65-37.66,20.77,13.84q0.16,34.34.34,68.66l-65.34,42.67-20.77-13.84V594.6Z" transform="translate(-183.63 -141.78)"/><path class="cls-5" d="M691.93,506l-12.7,7.54Z" transform="translate(-183.63 -141.78)"/><path class="cls-5" d="M328,299.32c24,13.56,56.4,32.1,96.54,55.28a29.94,29.94,0,0,0,30,0l56.92-33L552,298.05a7.88,7.88,0,0,0,0-13.65c-29.5-17.06-66.17-38.2-97.22-55.85a31.51,31.51,0,0,0-31.39.13L327.88,284A8.8,8.8,0,0,0,328,299.32Z" transform="translate(-183.63 -141.78)"/><path class="cls-5" d="M259.22,300.71L604.73,500.19a65.61,65.61,0,0,0,66.33-.41c38.16-22.68,87.67-51.93,147.16-87a11.19,11.19,0,0,0-.08-19.34L484.26,200.72a90.65,90.65,0,0,0-91.33.4c-53.93,31.77-99,58.39-133.84,79.13A11.86,11.86,0,0,0,259.22,300.71Zm376.44,21.74a47.49,47.49,0,0,1,23.49,6.21c37.43,21.28,83,47.63,113.7,65.39a12.93,12.93,0,0,1,0,22.37L659,482.42a45.94,45.94,0,0,1-46,0c-36.58-21.12-80.11-46.11-109.81-62.74A16,16,0,0,1,503,392l108.86-63.1A47.49,47.49,0,0,1,635.66,322.45ZM306.5,277.94l108.86-63.1a47.51,47.51,0,0,1,47.32-.2c37.43,21.28,83,47.63,113.7,65.39a12.93,12.93,0,0,1,0,22.37l-113.86,66a45.94,45.94,0,0,1-46,0c-36.58-21.12-80.11-46.11-109.81-62.74A16,16,0,0,1,306.5,277.94Z" transform="translate(-183.63 -141.78)"/><path class="cls-5" d="M524.43,413.33c24,13.56,56.4,32.1,96.54,55.28a29.94,29.94,0,0,0,30,0l56.92-33,40.57-23.52a7.88,7.88,0,0,0,0-13.65c-29.5-17.06-66.17-38.2-97.22-55.85a31.51,31.51,0,0,0-31.39.13l-95.51,55.36A8.8,8.8,0,0,0,524.43,413.33Z" transform="translate(-183.63 -141.78)"/><path class="cls-5" d="M832.68,384.85a27.46,27.46,0,0,0-6.55-5.23L492.26,186.86,826.13,379.62A27.47,27.47,0,0,1,832.68,384.85Z" transform="translate(-183.63 -141.78)"/><path class="cls-5" d="M839.69,404.77a27.65,27.65,0,0,1-.41,3.4A27.6,27.6,0,0,0,839.69,404.77Z" transform="translate(-183.63 -141.78)"/><path class="cls-7" d="M748.84,608.44v73.67l65.34-42.67q-0.16-34.34-.34-68.66l-20.64,12Z" transform="translate(-183.63 -141.78)"/><polygon class="cls-3" points="565.21 466.67 544.44 452.82 544.44 526.5 565.21 540.34 565.21 466.67"/><path class="cls-2" d="M793.2,582.74l20.64-12-20.77-13.84-65,37.66,20.77,13.84Z" transform="translate(-183.63 -141.78)"/><path class="cls-4" d="M238.69,299.23a27.65,27.65,0,0,0,1.31,3.28q0.38,0.8.82,1.58a27.23,27.23,0,0,0,2,3q0.54,0.73,1.14,1.42a27.8,27.8,0,0,0,5.63,5q0.81,0.54,1.67,1l252.93,146L596.73,514q1.19,0.69,2.4,1.33L600,515.8c0.53,0.28,1.06.55,1.59,0.82l1,0.47,1.47,0.69,1.07,0.46,1.42,0.61,1.11,0.44,1.4,0.55,1.17,0.41,1.37,0.48,1.2,0.38,1.36,0.43,1.22,0.35,1.36,0.38,1.24,0.31,1.36,0.33,1.25,0.27,1.37,0.29,1.25,0.23,1.37,0.24,1.26,0.18,1.38,0.2,1.26,0.14,1.38,0.15,1.26,0.1,1.39,0.1,1.26,0.06,1.39,0.06,1.27,0,1.13,0h0.26l1.37,0,1.32,0,1.38-.07,1.31-.07,1.38-.11,1.3-.12,1.37-.16,1.3-.16,1.37-.21,1.29-.2,1.37-.25,1.28-.24,1.36-.3,1.28-.28,1.36-.35,1.26-.32,1.36-.4,1.24-.36,1.36-.45,1.22-.4,1.37-.5,1.19-.44,1.37-.55,1.16-.47,1.41-.63,1.09-.49c0.5-.23,1-0.48,1.51-0.73l1-.47c0.56-.28,1.11-0.58,1.67-0.88l0.78-.41q1.22-.67,2.41-1.38l12.7-7.54,8.72-5.17,17.94-10.63,4.57-2.71L732.4,482c17-10.06,34.52-20.4,51.89-30.64l9.46-5.58,4.71-2.78,23.29-13.72,4.58-2.7a27,27,0,0,0,9.19-8.83,26.71,26.71,0,0,0,1.67-3.06,27,27,0,0,0,1.25-3.22,27.5,27.5,0,0,0,1.24-6.73q0-.85,0-1.71t-0.06-1.71a27.61,27.61,0,0,0-.81-5.07,27.26,27.26,0,0,0-1.07-3.27,26.93,26.93,0,0,0-1.22-2.61q-0.29-.55-0.61-1.09a25.42,25.42,0,0,0-3.28-4.45,27.47,27.47,0,0,0-6.55-5.23L492.26,186.86l-0.45-.25c-0.89-.51-1.78-1-2.68-1.49l-1.17-.6c-0.67-.35-1.33-0.7-2-1l-1.36-.64c-0.61-.29-1.23-0.59-1.85-0.87l-1.45-.63c-0.6-.26-1.19-0.53-1.79-0.77L478,180c-0.59-.23-1.18-0.47-1.77-0.69l-1.56-.56c-0.58-.21-1.16-0.42-1.75-0.62l-1.6-.51-1.74-.55-1.62-.46-1.74-.49-1.64-.41-1.75-.43-1.63-.35-1.78-.37-1.65-.3-1.78-.31-1.65-.24-1.79-.26-1.65-.19-1.8-.2-1.66-.13-1.79-.14L444,172.7l-1.79-.08-1.68,0-1.55,0H438.7l-1.8,0-1.69,0-1.81.09-1.68.09-1.8.15-1.68.15-1.8.21-1.68.2-1.79.27-1.67.25-1.79.33-1.66.31-1.78.39-1.65.36-1.78.45-1.63.42-1.79.52-1.6.46c-0.6.19-1.2,0.39-1.8,0.58l-1.56.51c-0.6.21-1.2,0.43-1.79,0.65l-1.54.56c-0.6.23-1.2,0.48-1.8,0.72l-1.5.6c-0.62.26-1.23,0.54-1.84,0.81l-1.42.63c-0.66.3-1.32,0.63-2,.95l-1.25.6c-0.73.37-1.46,0.76-2.18,1.14l-1,.52q-1.58.86-3.14,1.78l-8.56,5L359,202.56l-17.35,10.23L324.33,223c-14.34,8.47-28.49,16.84-42.07,24.89-10.87,6.44-21.38,12.68-31.35,18.61a28.25,28.25,0,0,0-6,4.75q-0.64.67-1.23,1.37a27.22,27.22,0,0,0-3,4.48,27.73,27.73,0,0,0-2.84,8c-0.13.67-.24,1.35-0.32,2A28.33,28.33,0,0,0,238.69,299.23Zm20.39-19C294,259.51,339,232.88,392.92,201.12a90.65,90.65,0,0,1,91.33-.4L818.13,393.48a11.19,11.19,0,0,1,.08,19.34c-59.49,35-109,64.28-147.16,87a65.61,65.61,0,0,1-66.33.41L259.22,300.71A11.86,11.86,0,0,1,259.08,280.25Z" transform="translate(-183.63 -141.78)"/><path class="cls-4" d="M306.7,305.71c29.7,16.62,73.23,41.62,109.81,62.74a45.94,45.94,0,0,0,46,0l113.86-66a12.93,12.93,0,0,0,0-22.37c-30.66-17.76-76.28-44.11-113.7-65.39a47.51,47.51,0,0,0-47.32.2L306.5,277.94A16,16,0,0,0,306.7,305.71ZM327.88,284l95.51-55.36a31.51,31.51,0,0,1,31.39-.13c31,17.66,67.72,38.79,97.22,55.85a7.88,7.88,0,0,1,0,13.65l-40.57,23.52-56.92,33a29.94,29.94,0,0,1-30,0C384.36,331.42,352,312.88,328,299.32A8.8,8.8,0,0,1,327.88,284Z" transform="translate(-183.63 -141.78)"/><path class="cls-4" d="M503.16,419.73c29.7,16.62,73.23,41.62,109.81,62.74a45.94,45.94,0,0,0,46,0l113.86-66a12.93,12.93,0,0,0,0-22.37c-30.66-17.76-76.28-44.11-113.7-65.39a47.51,47.51,0,0,0-47.32.2L503,392A16,16,0,0,0,503.16,419.73Zm21.18-21.67,95.51-55.36a31.51,31.51,0,0,1,31.39-.13c31,17.66,67.72,38.79,97.22,55.85a7.88,7.88,0,0,1,0,13.65l-40.57,23.52-56.92,33a29.94,29.94,0,0,1-30,0c-40.15-23.18-72.53-41.72-96.54-55.28A8.8,8.8,0,0,1,524.34,398.06Z" transform="translate(-183.63 -141.78)"/></svg>